<?xml version="1.0" standalone="no"?>
<!DOCTYPE svg PUBLIC "-//W3C//DTD SVG 20010904//EN"
 "http://www.w3.org/TR/2001/REC-SVG-20010904/DTD/svg10.dtd">
<svg version="1.0" xmlns="http://www.w3.org/2000/svg"
 width="114.000000pt" height="114.000000pt" viewBox="0 0 114.000000 114.000000"
 preserveAspectRatio="xMidYMid meet">
<metadata>
Created by potrace 1.11, written by Peter Selinger 2001-2013
</metadata>
<g transform="translate(0.000000,114.000000) scale(0.100000,-0.100000)"
fill="#000000" stroke="none">
<path d="M460 1087 c-20 -23 -24 -23 -58 -11 -32 11 -38 10 -46 -4 -5 -10 -12
-19 -15 -22 -3 -3 -6 -12 -6 -20 0 -10 -10 -15 -32 -14 -23 1 -30 -2 -26 -12
3 -9 -2 -14 -13 -15 -18 0 -18 -1 -1 -8 17 -6 17 -8 -4 -34 -14 -18 -27 -26
-37 -22 -13 5 -13 3 1 -13 16 -18 16 -21 -12 -56 -18 -23 -27 -44 -24 -56 3
-11 9 -18 13 -15 4 2 4 -14 0 -37 -5 -23 -6 -48 -3 -55 3 -7 -2 -25 -12 -39
-13 -20 -14 -32 -7 -54 6 -16 8 -31 5 -34 -10 -9 29 -46 40 -39 5 3 7 1 4 -4
-4 -6 -18 -8 -32 -5 -20 3 -25 0 -25 -15 0 -25 19 -43 44 -43 20 0 20 -1 -2
-22 -18 -18 -24 -20 -31 -10 -7 11 -9 10 -14 -3 -10 -25 21 -30 51 -8 26 19
28 19 57 3 31 -18 34 -39 9 -53 -8 -4 -14 -12 -14 -17 0 -16 71 -90 87 -90 10
0 13 -8 11 -25 -3 -27 -15 -33 -232 -121 -71 -29 -66 -28 -61 -5 2 11 -7 29
-20 41 -14 13 -22 27 -18 33 3 5 0 13 -7 17 -7 4 -13 19 -13 34 0 14 -3 26 -8
26 -5 0 -9 -58 -9 -130 l0 -130 570 0 c549 0 570 1 570 19 0 13 -18 26 -62 46
-35 16 -108 50 -164 77 -100 47 -140 60 -117 37 9 -9 8 -19 -3 -40 -18 -36
-22 -36 -18 -1 l4 27 -9 -28 c-5 -16 -16 -35 -23 -44 -18 -22 -87 -53 -118
-53 -23 0 -25 4 -28 45 -2 28 1 45 8 45 7 0 9 8 5 19 -4 14 3 24 30 41 32 20
55 47 55 66 0 4 -8 0 -17 -8 -26 -22 -51 -29 -57 -15 -3 9 -5 9 -5 0 -1 -7 -4
-13 -9 -13 -4 0 -6 18 -4 40 2 22 8 37 13 34 9 -5 5 26 -7 65 -2 7 1 20 8 29
9 11 10 16 2 19 -6 2 -20 10 -30 17 -17 13 -16 14 10 9 l29 -6 -19 31 c-19 33
-14 53 9 33 12 -9 18 -6 32 15 24 37 35 80 23 92 -5 5 -7 19 -3 31 7 22 34 22
83 -2 34 -16 36 -46 13 -164 -22 -110 -27 -188 -13 -196 15 -10 100 78 107
110 5 27 4 32 -8 27 -9 -3 -16 2 -20 15 -3 12 1 22 9 25 10 4 12 14 8 30 -4
19 -1 26 16 31 15 5 19 10 11 14 -8 5 -2 18 19 39 32 34 36 52 19 85 -7 11
-11 53 -10 93 2 67 0 76 -35 129 -20 32 -37 63 -38 70 -5 32 -69 86 -138 117
-16 7 -28 16 -28 20 0 4 -10 8 -23 8 -13 0 -27 4 -33 9 -5 5 -37 12 -71 15
-58 6 -64 5 -83 -17z m115 -387 c-7 -11 21 -63 45 -85 27 -24 25 -45 -4 -45
-28 0 -54 -25 -34 -33 7 -3 3 -6 -9 -6 -22 -1 -23 2 -23 100 0 89 2 100 15 89
8 -7 13 -16 10 -20z m237 -202 c-7 -7 -12 -8 -12 -2 0 14 12 26 19 19 2 -3 -1
-11 -7 -17z"/>
</g>
</svg>
