<svg xmlns="http://www.w3.org/2000/svg" width="655.172" height="1160" viewBox="0 0 655.172 1160"><path fill="#FFF" d="M30.33 1069.362V37.117h61.789L34.105 98.449c160.894 163.011 321.547 325.778 482.61 488.958-4.158 4.417-7.722 8.429-11.52 12.203-104.773 104.122-209.462 208.328-314.407 312.275-53.244 52.738-106.957 105-160.458 157.477z"/><path fill-rule="evenodd" clip-rule="evenodd" fill="#FFF" d="M95.754 37.118h541.565v548.834c-4.614-3.587-9.706-6.703-13.775-10.826C473.23 422.859 322.942 270.568 172.847 118.088c-26.14-26.555-51.418-53.959-77.093-80.97zM637.319 589.587v541.564h-545.2c1.811-2.291 3.406-4.799 5.463-6.843 112.81-112.078 225.587-224.192 338.531-336.136 66.929-66.335 134.128-132.401 201.206-198.585z"/><path fill-rule="evenodd" clip-rule="evenodd" d="M637.319 589.587c-67.078 66.185-134.277 132.25-201.206 198.586-112.944 111.943-225.721 224.057-338.531 336.136-2.057 2.044-3.652 4.552-5.463 6.843h-3.635l-58.154-58.154v-3.635c53.501-52.478 107.214-104.739 160.458-157.478C295.733 807.938 400.422 703.732 505.195 599.61c3.798-3.774 7.361-7.786 11.52-12.203C355.652 424.227 194.999 261.46 34.105 98.449l58.014-61.332h3.635c25.675 27.011 50.953 54.415 77.093 80.971 150.095 152.48 300.384 304.771 450.697 457.038 4.069 4.123 9.161 7.239 13.775 10.826v3.635z"/><path fill-rule="evenodd" clip-rule="evenodd" fill="#FFF" d="M30.33 1072.997l58.154 58.154H30.33v-58.154z"/></svg>